<?xml version="1.0" encoding="utf-8"?>
<!-- Generator: Adobe Illustrator 16.0.0, SVG Export Plug-In . SVG Version: 6.00 Build 0)  -->
<!DOCTYPE svg PUBLIC "-//W3C//DTD SVG 1.1//EN" "http://www.w3.org/Graphics/SVG/1.1/DTD/svg11.dtd">
<svg version="1.1" xmlns="http://www.w3.org/2000/svg" xmlns:xlink="http://www.w3.org/1999/xlink" x="0px" y="0px" width="960px"
	 height="560px" viewBox="0 0 960 560" enable-background="new 0 0 960 560" xml:space="preserve">
<g id="Layer_1">
	<g>
		<g>
			<path id="signature" fill-rule="evenodd" clip-rule="evenodd" d="M46.412,215.234c-7.515,4.311-13.721,9.909-18.605,16.959
				c-5.564,8.031-8.742,16.87-8.044,26.688c1.042,14.66,10.217,23.506,22.688,29.141c26.417,11.936,51.574,7.943,75.409-7.309
				c22.741-14.553,38.59-35.403,52.204-58.182c6.651-11.127,12.524-22.684,17.878-34.481c12.076-26.61,24.2-53.188,40.055-78.907
				c-11.523,1.857-21.895,4.773-31.983,8.741c-16.249,6.391-31.455,14.442-43.012,28.007c-7.145,8.387-11.228,17.945-10.69,29.229
				c0.596,12.507,8.94,18.355,20.713,14.345c11.203-3.815,18.418-13.792,18.32-25.276c-0.016-1.855-0.061-3.678-1.187-5.263
				c-0.773-1.088-1.933-2.322-0.05-3.232c1.261-0.61,2.663-0.111,3.538,1.107c1.089,1.517,1.494,3.293,1.717,5.122
				c2.522,20.63-20.476,39.477-40.291,33.014c-10.273-3.351-16.525-13.896-15.426-25.177c1.585-16.262,10.113-28.288,22.726-37.729
				c18.77-14.05,40.515-21.08,63.093-25.991c0.65-0.142,1.301-0.332,1.96-0.374c9.156-0.588,16.858-3.562,21.944-11.929
				c1.797-2.956,5.027-4.86,8.782-5.138c3.212-0.237,6.818-0.543,8.021,3.25c1.191,3.754,0.16,7.441-3.47,9.58
				c-3.855,2.271-7.897,4.294-12.468,4.771c-4.445,0.464-7.204,2.588-9.437,6.736c-10.056,18.676-16.57,38.726-23.416,58.647
				c-8.714,25.359-18.61,50.17-33.575,72.6c-19.358,29.014-57.902,51.308-84.974,56.035c-15.875,2.771-32.249,1.721-47.74-4.249
				c-23.328-8.988-32.361-27.576-25.405-51.592c3.638-12.561,11.447-21.574,22.591-27.962
				C41.374,214.641,42.631,214.462,46.412,215.234z"/>
			<path fill-rule="evenodd" clip-rule="evenodd" d="M840.141,170.203c-8.016,6.625-10.875,15.463-14.668,23.669
				c-4.092,8.854-9.049,17.438-10.164,27.411c-0.334,2.994-0.936,6.43,2.266,8.042c3.348,1.686,6.119-0.724,8.346-2.927
				c6.727-6.658,10.832-15.046,15.023-23.377c3.879-7.711,7.748-15.472,13.617-21.935c6.262-6.899,13.563-11.734,23.463-11.105
				c5.783,0.367,9.859,3.295,10.699,7.943c1.076,5.967-2.055,12.79-6.83,14.849c-1.438,0.62-3.156,0.981-4.283-0.055
				c-1.691-1.555,0.521-2.542,1.152-3.604c1.797-3.026,3.586-6.034,3.871-9.623c0.32-4.01-1.836-5.933-5.803-5.214
				c-2.33,0.422-4.463,1.473-6.242,2.988c-11.719,9.981-19.035,22.448-21.1,37.829c-0.066,0.494-0.17,0.986-0.195,1.482
				c-0.633,12.59,8.148,18.44,19.48,12.802c6.314-3.144,10.717-8.339,13.766-14.626c12.092-24.946,24.219-49.873,37.264-74.34
				c0.938-1.759,1.896-3.507,2.893-5.232c6.264-10.838,6.914-11.166,19.895-9.878c-16.158,23.934-28.867,49.543-41.666,75.349
				c12.629-11.879,25.635-22.859,43.268-26.087c-6.049,12.899-12.877,25.02-17.998,37.974c-1.596,4.038-2.975,8.121-3.438,12.447
				c-0.229,2.135-0.555,4.539,1.816,5.779c2.451,1.281,4.469-0.05,6.316-1.605c3.615-3.045,6.328-6.854,8.701-10.858
				c3.471-5.854,6.664-11.872,10.008-17.803c0.676-1.197,1.002-3.321,2.912-2.601c2.121,0.799,0.844,2.544,0.238,3.793
				c-4.127,8.526-8.102,17.149-14.195,24.536c-2.779,3.367-5.881,6.356-10.074,7.92c-9.58,3.57-17.793-2.822-16.523-12.917
				c0.67-5.327,2.291-10.373,5.037-15.024c2.365-4.006,4.795-7.977,7.033-12.052c0.904-1.645,2.645-3.642,0.637-5.39
				c-1.846-1.606-3.752,0.069-5.451,0.963c-2.975,1.564-5.445,3.818-7.809,6.165c-9.393,9.33-17.502,19.677-23.148,31.675
				c-2.555,5.428-5.498,8.871-11.973,7.486c-0.93-0.199-1.977,0.152-3.094,0.261c-0.723-1.505,1.098-2.431,0.916-3.946
				c-0.441,0.105-0.941,0.113-1.32,0.331c-6.234,3.589-13.061,3.814-19.896,3.116c-7.588-0.775-12.236-5.576-13.42-13.211
				c-0.277-1.791-0.365-3.611-0.584-5.855c-2.262,1.406-2.85,3.682-4.021,5.443c-3.063,4.597-6.211,9.132-11.104,11.947
				c-8.494,4.889-16.326,0.865-17.207-8.826c-0.268-2.937-0.041-5.918-0.041-9.64c-4.273,5.999-7.764,11.831-13.025,16.208
				c-3.322,2.764-6.879,4.565-11.359,4.12c-6.057-0.602-10.098-4.627-10.42-10.687c-0.088-1.65-0.182-3.428,0.307-4.962
				c5.002-15.676,9.947-31.385,18.361-45.693c1.363-2.317,3.275-3.686,6.07-3.662c3.615,0.031,7.23,0.008,11.086,0.008
				c-11.814,14.098-17.301,31.063-24.49,47.12c-1.33,2.971-1.857,6.428-1.16,9.809c0.725,3.515,2.734,4.82,6.168,3.287
				c2.793-1.248,4.947-3.275,6.902-5.598c10.734-12.749,17.275-27.904,24.443-42.682
				C825.666,169.007,823.289,169.686,840.141,170.203z"/>
			<path fill-rule="evenodd" clip-rule="evenodd" fill="#E3E3E3" d="M724.828,211.038c0.377-1.21,0.578-2.521,2.209-3.498
				c0.578,2.026-0.098,3.446-1.199,4.784C725.5,211.896,725.164,211.467,724.828,211.038z"/>
			<path fill-rule="evenodd" clip-rule="evenodd" fill="#CBCBCB" d="M284.789,217.051c0.151-0.824,0.508-1.709,1.376-1.676
				c0.916,0.037,0.56,1.026,0.473,1.543c-0.185,1.098-0.568,2.161-0.87,3.238C285.236,219.186,285.91,217.836,284.789,217.051z"/>
			<path fill-rule="evenodd" clip-rule="evenodd" fill="#CBCBCB" d="M469.789,217.051c0.151-0.824,0.509-1.709,1.376-1.676
				c0.916,0.037,0.56,1.026,0.473,1.543c-0.186,1.098-0.568,2.161-0.87,3.238C470.236,219.186,470.91,217.836,469.789,217.051z"/>
			<path fill-rule="evenodd" clip-rule="evenodd" fill="#D8D8D8" d="M334.738,200.037c-0.617,0.983-1.172,2.781-2.507,1.766
				c-0.762-0.579,0.355-2.161,1.352-2.949C333.968,199.249,334.353,199.643,334.738,200.037z"/>
			<path fill-rule="evenodd" clip-rule="evenodd" fill="#D8D8D8" d="M394.738,200.037c-0.617,0.983-1.172,2.781-2.507,1.766
				c-0.762-0.579,0.355-2.161,1.352-2.949C393.968,199.249,394.353,199.643,394.738,200.037z"/>
		</g>
		<path fill-rule="evenodd" clip-rule="evenodd" fill="#FEFEFE" d="M772.734,183.536c-0.375,1.786-0.604,4.324-1.447,6.638
			c-5.553,15.203-14.619,27.92-27.51,37.772c-3.197,2.443-6.834,4.222-11.104,3.49c-2.498-0.429-4.053-1.323-2.402-4.343
			c7.803-14.283,14.984-28.93,24.707-42.082c2.186-2.954,4.576-5.748,7.783-7.666c2.137-1.279,4.363-2.82,6.961-1.447
			C772.477,177.355,772.604,180.135,772.734,183.536z"/>
		<path fill-rule="evenodd" clip-rule="evenodd" fill="#FDFDFD" d="M691.734,202.92c5.871-10.48,11.846-19.57,20.705-26.342
			c1.854-1.418,4.045-3.603,6.641-1.734c2.566,1.848,1.367,4.611,0.568,6.875C715.148,194.453,705.424,200.52,691.734,202.92z"/>
		<g>
			<path fill="none" d="M769.723,175.898c-2.598-1.373-4.824,0.168-6.961,1.447c-3.207,1.918-5.598,4.713-7.783,7.666
				c-9.723,13.152-16.904,27.799-24.707,42.082c-1.65,3.02-0.096,3.914,2.402,4.344c4.27,0.73,7.906-1.047,11.104-3.49
				c12.891-9.854,21.957-22.57,27.51-37.773c0.844-2.313,1.072-4.852,1.447-6.637C772.604,180.135,772.477,177.355,769.723,175.898z
				"/>
			<path fill="#FEFEFE" d="M637.211,174.832c1.168,0,2.338,0.056,3.5-0.01c16.945-0.942,31.594-6.716,41.625-21.046
				c12.799-18.284,6.529-40.996-13.297-49.066c-8.34-3.395-17.086-4.329-25.971-3.177c-21.215,2.75-37.113,14.563-50.527,30.311
				c-9.426,11.064-9.395,13.39,0.016,24.657C604.186,170.427,620.111,174.115,637.211,174.832z"/>
		</g>
		<path fill-rule="evenodd" clip-rule="evenodd" fill="#FDFDFD" d="M691.734,203.087c5.871-10.48,11.846-19.57,20.705-26.342
			c1.854-1.418,4.045-3.603,6.641-1.734c2.566,1.848,1.367,4.611,0.568,6.875C715.148,194.62,705.424,200.687,691.734,203.087z"/>
		<path d="M775.025,171.146c-5.971-2.873-10.975-0.453-15.451,3.595c-5.736,5.188-10.102,11.462-14.221,17.943
			c-0.773,1.216-1.01,3.208-3.369,3.228c1.906-7.083,3.264-14.01,3.211-21.164c-0.027-3.915-1.75-5.482-5.586-4.656
			c-3.225,0.694-6.564,0.95-9.488,2.323c2.777,4.401,2.133,9.181,1.104,13.605c-3.213,13.797-10.002,25.911-18.773,36.923
			c-1.531,1.921-3.596,3.462-5.57,4.975c-2.695,2.065-5.844,3.07-9.229,3.413c-4.611,0.465-7.623-1.273-9.055-5.857
			c-1.672-5.359-0.643-10.498,0.559-15.736c0.541-2.349,1.697-3.244,3.971-3.568c5.988-0.854,11.627-2.913,16.791-6.012
			c7.18-4.307,12.988-9.962,15.211-18.352c1.783-6.736-1.988-11.47-8.904-11.827c-4.695-0.242-8.867,1.232-12.75,3.623
			c-12.168,7.487-19.73,18.504-24.359,31.81c-3.168,9.109-8.295,17.15-15.49,23.467c-18.568,16.305-40.502,21.71-64.582,17.777
			c-19.957-3.26-29.6-13.366-32.674-33.471c-2.697-17.639,1.85-34.352,7.752-50.748c1.629-4.527,3.313-9.105,6.631-13.464
			c5.424,10.58,12.707,18.549,22.865,23.686c11.887,6.012,24.504,7.871,37.725,7.414c15.383-0.531,29.229-5.025,40.605-15.441
			c12.027-11.013,18.5-24.633,14.469-41.174c-3.748-15.373-15.211-23.481-29.801-27.018c-24.613-5.967-47.512-1.783-68.195,13.205
			c-6.873,4.979-12.496,11.27-18.393,18.083c-1.631-9.653-2.85-18.653-2.17-27.803c0.197-2.654,0.604-5.293,0.838-7.945
			c0.07-0.785,0.096-1.727-1.053-1.892c-0.867-0.124-1.752-0.009-2.141,0.858c-0.465,1.042-0.816,2.151-1.076,3.265
			c-2.658,11.382-2.357,22.824-0.197,34.203c0.75,3.944,0.459,6.938-1.986,10.508c-13.268,19.351-19.992,40.723-18.59,64.402
			c1.338,22.583,13.924,39.357,35.217,46.693c21.514,7.412,41.9,4.584,61.379-6.707c10.623-6.156,19.41-14.27,26.834-25.992
			c0.297,9.865,4.826,15.278,12.754,17.137c8.633,2.025,16.451-0.253,23.1-6.305c5.281-4.807,8.521-10.995,11.893-17.11
			c0.352-0.118,0.623-0.823,1.014-0.351c0.367,0.443,0.164,1.086-0.004,1.637c-0.578,1.721-1.047,3.488-1.75,5.156
			c-9.51,22.495-20.842,44.064-33.285,65.103c12.621,3.521,15.826,1.226,20.766-10.937c4.807-11.838,9.576-23.691,14.174-35.61
			c1.127-2.917,2.127-3.532,5.334-2.406c7.34,2.576,14.922,2.252,21.736-1.659c18.229-10.461,26.594-27.166,28.785-47.4
			C782.203,178.971,780.59,173.823,775.025,171.146z M712.439,176.746c1.854-1.418,4.045-3.603,6.641-1.734
			c2.566,1.848,1.367,4.611,0.568,6.875c-4.5,12.734-14.225,18.801-27.914,21.201C697.605,192.607,703.58,183.518,712.439,176.746z
			 M592.541,131.844c8.384-9.843,17.738-18.147,28.754-23.664c6.61-3.31,13.818-5.616,21.773-6.647
			c8.885-1.152,17.631-0.218,25.971,3.177c1.858,0.757,3.599,1.642,5.214,2.64c1.077,0.666,2.1,1.381,3.065,2.143
			c0.483,0.38,0.952,0.772,1.407,1.175c6.819,6.042,10.433,14.516,10.273,23.458c-0.117,6.557-2.264,13.366-6.663,19.651
			c-1.254,1.791-2.58,3.449-3.974,4.98s-2.854,2.936-4.379,4.221c-0.763,0.643-1.54,1.256-2.334,1.84
			c-8.725,6.425-19.288,9.356-30.938,10.005c-0.423,0.023-0.847,0.021-1.271,0.021c-0.742,0-1.485-0.012-2.229-0.012
			c-10.153-0.426-19.892-1.899-28.563-5.94c-5.934-2.766-11.366-6.733-16.091-12.391c-1.765-2.113-3.199-3.911-4.304-5.511
			c-0.736-1.067-1.325-2.046-1.769-2.972c-0.442-0.926-0.738-1.798-0.887-2.651c-0.074-0.427-0.111-0.849-0.112-1.271
			C585.479,140.724,587.828,137.376,592.541,131.844z M771.287,190.174c-5.553,15.203-14.619,27.92-27.51,37.773
			c-3.197,2.443-6.834,4.221-11.104,3.49c-2.498-0.43-4.053-1.324-2.402-4.344c7.803-14.283,14.984-28.93,24.707-42.082
			c2.186-2.953,4.576-5.748,7.783-7.666c2.137-1.279,4.363-2.82,6.961-1.447c2.754,1.457,2.881,4.236,3.012,7.639
			C772.359,185.322,772.131,187.861,771.287,190.174z"/>
		<path fill-rule="evenodd" clip-rule="evenodd" d="M508.871,197.911c-1.91-0.892-2.289,1.402-2.939,2.551
			c-2.859,5.053-5.473,10.246-8.402,15.256c-2.607,4.459-5.641,8.652-9.629,12.025c-1.572,1.328-3.516,2.421-5.475,1.351
			c-1.754-0.958-1.852-3.025-1.662-4.911c0.369-3.649,1.127-7.196,2.416-10.658c3.703-9.948,9.006-19.057,14.93-28.081
			c-1.566-0.173-2.732-0.219-3.865-0.44c-7.162-1.394-8.898-0.748-12.77,5.478c-2.719,4.369-5.164,8.91-7.779,13.345
			c-4.396,7.448-8.672,15.017-15.178,20.896c-3.061,2.767-6.674,6.227-10.947,3.464c-3.828-2.474-2.197-7.004-1.247-10.594
			c3.37-12.73,10.882-23.018,19.8-32.39c4.145-4.357,8.535-8.399,14.518-10.188c4.459-1.333,8.283-0.713,10.809,3.521
			c0.896,1.503,1.816,2.642,3.445,1.538c1.473-0.999,1.193-2.697,0.332-4.025c-1.887-2.911-4.705-4.729-7.945-5.713
			c-9.896-3.006-18.787-0.22-26.832,5.475c-9.959,7.049-15.984,17.121-20.647,28.168c-3.782,8.959-8.894,17.104-16.172,23.67
			c-1.931,1.741-4.325,3.438-7.196,1.701c-2.775-1.678-1.863-4.442-1.48-6.773c0.728-4.434,2.263-8.658,4.014-12.807
			c5.221-12.365,11.38-24.274,18.484-37.281c-18.514,3.797-30.771,15.039-42.713,26.791c-1.264,0.464-1.578,0.001-1.156-1.183
			c4.225-8.833,9.303-17.123,15.862-24.597c-11.825-1.659-13.286-1.138-18.855,9.108c-5.147,9.472-9.847,19.187-14.726,28.804
			c-3.113,6.137-6.949,11.757-12.217,16.232c-1.989,1.689-4.324,3.438-7.202,1.711c-2.788-1.672-1.874-4.438-1.493-6.768
			c0.726-4.435,2.26-8.661,4.012-12.81c5.224-12.365,11.373-24.28,18.496-37.291c-18.523,3.798-30.779,15.04-42.721,26.792
			c-1.264,0.464-1.578,0.001-1.156-1.183c4.223-8.837,9.311-17.125,15.863-24.608c-11.859-1.625-13.111-1.017-18.914,9.11
			c-0.99,1.728-1.948,3.474-2.901,5.223c-5.8,10.636-10.782,21.726-17.642,31.774c-2.26,3.31-4.652,6.549-8.061,8.752
			c-3.665,2.369-6.203,1.021-6.173-3.328c0.026-3.839,0.937-7.58,2.294-11.186c3.756-9.979,8.897-19.23,15.102-28.296
			c-1.424-0.179-2.52-0.261-3.594-0.462c-7.59-1.42-9.45-0.679-13.491,5.958c-2.851,4.684-5.452,9.52-8.236,14.244
			c-4.056,6.884-8.125,13.793-14.093,19.251c-3.054,2.793-6.621,6.327-10.916,3.786c-4.204-2.486-2.498-7.214-1.421-10.924
			c4.561-15.713,14.206-28.01,26.567-38.357c2.037-1.705,4.376-2.994,6.944-3.825c4.727-1.529,8.921-1.246,11.662,3.542
			c0.775,1.354,1.605,2.251,3.109,1.43c1.723-0.941,1.426-2.651,0.66-3.916c-1.891-3.122-4.873-4.981-8.308-6
			c-9.739-2.887-18.493-0.123-26.404,5.407c-10.002,6.992-16.153,17.024-20.72,28.123c-3.373,8.195-7.42,15.971-13.755,22.342
			c-2.853,2.871-6.197,4.475-10.321,3.83c-2.403-0.376-4.685-1.497-5.638-3.691c-0.87-2.004,1.546-2.969,2.603-4.266
			c8.565-10.504,15.415-21.789,15.664-35.848c0.268-15.106-10.295-21.374-23.68-14.24c-0.88,0.469-1.79,0.909-2.589,1.495
			c-13.463,9.883-22.084,22.845-24.791,39.46c-1.198,7.35-0.986,14.807,5.787,19.369c6.581,4.434,13.425,1.943,19.632-1.863
			c1.983-1.216,3.191-1.208,5.181,0.285c6.312,4.738,14.132,4.045,20.076-1.213c3.153-2.79,5.547-6.252,8.482-9.786
			c0.211,1.2,0.31,1.853,0.441,2.497c2.686,13.182,10.939,15.984,21.447,7.343c4.563-3.753,7.842-8.569,11.34-13.216
			c1.622,0.408,1.676,0.578,0.979,3.105c0.011,5.785,0.283,11.527,6.255,14.695c4.913,2.607,8.962,0.298,12.815-2.654
			c0.16-0.121,0.552,0.062,0.529,0.059c1.294,1.092-1.133,2.282,0.195,2.979c3.22,1.689,11.461-1.272,13.227-4.556
			c5.6-10.414,11.572-20.571,19.635-29.348c3.832-4.172,7.598-8.416,12.559-11.29c1.753-1.015,3.824-3.083,5.781-1.158
			c1.939,1.908,0.067,4.008-1.021,5.801c-3.275,5.396-6.429,10.848-8.965,16.647c-1.833,4.192-2.823,8.532-2.591,13.089
			c0.331,6.509,4.305,10.252,10.836,10.601c3.482,0.186,6.548-0.772,9.395-2.694c0.326-0.221,0.844-0.16,1.51-0.268
			c-0.321,1.187-0.574,2.125-0.859,3.178c1.508-0.081,3.028-0.434,4.447-0.19c5.536,0.948,8.316-1.724,10.621-6.523
			c4.836-10.071,11.044-19.345,18.623-27.603c4.262-4.643,8.457-9.44,14.455-12.024c1.197-0.515,2.438-1.343,3.658-0.072
			c1.15,1.199,0.637,2.551,0.028,3.707c-1.158,2.198-2.562,4.267-3.757,6.447c-4.062,7.415-8.691,14.625-8.979,23.48
			c-0.305,9.357,6.882,14.807,15.816,12.023c3.104-0.966,5.721-2.742,7.864-5.104c2.952-3.255,5.723-6.675,8.812-10.306
			c0.089,1.238,0.093,2.07,0.217,2.885c0.792,5.211,1.843,10.566,7.48,12.564c5.443,1.931,9.957-0.898,14.1-4.265
			c4.58-3.724,7.838-8.564,11.334-13.208c1.621,0.408,1.676,0.578,0.979,3.105c0.057,6.332,0.316,12.797,7.672,15.163
			c6.971,2.243,11.221-2.55,15.121-7.167c6.482-7.678,11.01-16.58,15.367-25.561C509.566,200.518,510.658,198.743,508.871,197.911z
			 M220.83,208.607c-4.432,1.01-5.184,4.725-5.113,8.576c0.029,1.627,0.449,3.293,0.943,4.859c1.455,4.611,0.232,6.342-5.746,7.852
			c-4.479,1.131-7.584-0.502-8.162-4.717c-0.357-2.6-0.453-5.406,0.131-7.936c2.918-12.613,8.031-24.225,16.684-34.053
			c2.436-2.767,5.264-5.136,8.645-6.63c5.836-2.579,9.799-0.191,10.49,6.145c0.555,5.092-0.707,9.942-2.295,14.665
			c-2.004,5.961-4.479,11.742-8.248,17.262C226.939,210.727,225.212,207.611,220.83,208.607z"/>
	</g>
</g>
<g id="Layer_2" display="none">
	<path display="inline" fill-rule="evenodd" clip-rule="evenodd" d="M489.871,211.669c-1.91-0.891-2.289,1.403-2.939,2.552
		c-2.859,5.052-5.473,10.246-8.402,15.255c-2.608,4.459-5.642,8.652-9.63,12.025c-1.571,1.328-3.515,2.421-5.475,1.351
		c-1.754-0.958-1.852-3.025-1.661-4.911c0.368-3.649,1.126-7.196,2.415-10.658c3.704-9.948,9.007-19.056,14.931-28.081
		c-1.567-0.173-2.733-0.219-3.866-0.44c-7.162-1.394-8.897-0.748-12.77,5.477c-2.719,4.37-5.163,8.911-7.779,13.345
		c-4.396,7.448-8.672,15.016-15.178,20.896c-3.061,2.767-6.674,6.227-10.947,3.464c-3.828-2.474-2.198-7.004-1.247-10.595
		c3.37-12.729,10.882-23.017,19.799-32.39c4.146-4.357,8.535-8.399,14.519-10.188c4.458-1.333,8.283-0.713,10.809,3.521
		c0.896,1.503,1.816,2.642,3.444,1.538c1.473-0.999,1.193-2.697,0.332-4.025c-1.887-2.911-4.704-4.729-7.944-5.713
		c-9.896-3.006-18.788-0.22-26.833,5.475c-9.958,7.049-15.984,17.121-20.647,28.168c-3.782,8.96-8.894,17.104-16.172,23.67
		c-1.93,1.742-4.326,3.438-7.197,1.702c-2.775-1.678-1.863-4.443-1.48-6.774c0.728-4.434,2.263-8.659,4.015-12.807
		c5.22-12.365,11.379-24.273,18.483-37.28c-18.514,3.797-30.771,15.039-42.712,26.791c-1.264,0.464-1.579,0.001-1.156-1.183
		c4.224-8.833,9.303-17.123,15.862-24.597c-11.825-1.659-13.287-1.138-18.855,9.108c-5.148,9.471-9.846,19.187-14.726,28.804
		c-3.114,6.137-6.95,11.757-12.217,16.232c-1.989,1.69-4.325,3.438-7.202,1.712c-2.788-1.673-1.875-4.438-1.493-6.768
		c0.726-4.435,2.259-8.661,4.012-12.81c5.224-12.365,11.374-24.28,18.497-37.291c-18.523,3.798-30.78,15.04-42.721,26.792
		c-1.264,0.464-1.579,0.001-1.156-1.183c4.222-8.837,9.311-17.125,15.863-24.608c-11.86-1.625-13.111-1.017-18.915,9.11
		c-0.99,1.728-1.948,3.474-2.901,5.223c-5.799,10.636-10.783,21.726-17.642,31.774c-2.26,3.31-4.653,6.549-8.06,8.752
		c-3.665,2.369-6.203,1.022-6.174-3.328c0.026-3.839,0.937-7.58,2.294-11.187c3.756-9.978,8.897-19.23,15.102-28.296
		c-1.424-0.179-2.52-0.261-3.594-0.462c-7.589-1.42-9.45-0.679-13.491,5.958c-2.851,4.684-5.452,9.519-8.236,14.244
		c-4.056,6.884-8.125,13.793-14.093,19.251c-3.054,2.793-6.621,6.327-10.916,3.786c-4.204-2.487-2.498-7.214-1.421-10.923
		c4.561-15.714,14.206-28.01,26.567-38.358c2.037-1.705,4.376-2.994,6.944-3.825c4.727-1.529,8.921-1.246,11.662,3.542
		c0.775,1.354,1.605,2.251,3.109,1.43c1.724-0.941,1.426-2.651,0.661-3.916c-1.891-3.122-4.873-4.981-8.308-6
		c-9.739-2.887-18.493-0.123-26.404,5.407c-10.002,6.992-16.153,17.024-20.72,28.122c-3.373,8.196-7.42,15.971-13.755,22.343
		c-2.853,2.87-6.197,4.475-10.321,3.83c-2.403-0.376-4.685-1.497-5.638-3.692c-0.87-2.004,1.546-2.968,2.603-4.265
		c8.565-10.503,15.415-21.79,15.664-35.848c0.268-15.106-10.295-21.374-23.68-14.24c-0.88,0.469-1.79,0.909-2.589,1.495
		c-13.463,9.883-22.084,22.845-24.791,39.461c-1.198,7.349-0.986,14.806,5.787,19.369c6.581,4.433,13.425,1.944,19.632-1.863
		c1.983-1.216,3.191-1.208,5.181,0.285c6.312,4.739,14.132,4.045,20.076-1.213c3.153-2.79,5.547-6.252,8.482-9.786
		c0.211,1.201,0.31,1.853,0.441,2.498c2.686,13.181,10.939,15.984,21.447,7.342c4.563-3.752,7.842-8.569,11.34-13.216
		c1.622,0.409,1.676,0.579,0.979,3.106c0.011,5.785,0.283,11.526,6.255,14.695c4.913,2.607,8.962,0.297,12.816-2.654
		c0.159-0.122,0.551,0.061,0.529,0.058c1.293,1.093-1.134,2.283,0.195,2.98c3.22,1.689,11.46-1.272,13.226-4.556
		c5.6-10.415,11.573-20.571,19.635-29.348c3.832-4.172,7.599-8.416,12.56-11.29c1.752-1.015,3.824-3.083,5.781-1.158
		c1.939,1.908,0.067,4.008-1.021,5.801c-3.275,5.396-6.429,10.848-8.965,16.648c-1.833,4.192-2.823,8.533-2.591,13.089
		c0.332,6.509,4.305,10.252,10.836,10.601c3.483,0.186,6.548-0.773,9.395-2.695c0.327-0.221,0.844-0.16,1.51-0.268
		c-0.321,1.187-0.574,2.125-0.859,3.178c1.507-0.081,3.028-0.434,4.447-0.19c5.537,0.949,8.317-1.723,10.622-6.523
		c4.836-10.071,11.044-19.344,18.623-27.603c4.261-4.643,8.458-9.44,14.456-12.024c1.197-0.515,2.438-1.343,3.657-0.072
		c1.15,1.199,0.638,2.55,0.029,3.707c-1.158,2.199-2.562,4.267-3.756,6.448c-4.062,7.415-8.691,14.624-8.979,23.48
		c-0.304,9.356,6.882,14.806,15.817,12.023c3.104-0.966,5.72-2.742,7.864-5.105c2.952-3.255,5.723-6.675,8.811-10.306
		c0.089,1.238,0.093,2.071,0.217,2.885c0.792,5.21,1.843,10.565,7.481,12.564c5.442,1.93,9.957-0.898,14.099-4.265
		c4.581-3.724,7.838-8.564,11.334-13.208c1.622,0.409,1.676,0.579,0.979,3.106c0.058,6.332,0.317,12.796,7.673,15.163
		c6.971,2.243,11.221-2.55,15.12-7.167c6.483-7.678,11.01-16.58,15.368-25.561C490.566,214.276,491.658,212.502,489.871,211.669z
		 M201.83,222.366c-4.432,1.01-5.184,4.725-5.113,8.576c0.029,1.627,0.449,3.293,0.943,4.859c1.455,4.611,0.232,6.342-5.746,7.852
		c-4.479,1.131-7.584-0.502-8.162-4.717c-0.357-2.6-0.453-5.406,0.131-7.936c2.918-12.613,8.031-24.225,16.684-34.053
		c2.436-2.767,5.264-5.136,8.645-6.63c5.836-2.579,9.799-0.191,10.49,6.145c0.555,5.092-0.707,9.942-2.295,14.665
		c-2.004,5.961-4.479,11.742-8.248,17.262C207.939,224.485,206.212,221.37,201.83,222.366z"/>
</g>
<g id="Layer_3" display="none">
	<path display="inline" fill-rule="evenodd" clip-rule="evenodd" fill="#FEFEFE" d="M753.734,196.703
		c-0.375,1.786-0.604,4.324-1.447,6.638c-5.553,15.203-14.619,27.92-27.51,37.772c-3.197,2.443-6.834,4.222-11.104,3.49
		c-2.498-0.429-4.053-1.323-2.402-4.343c7.803-14.283,14.984-28.93,24.707-42.082c2.186-2.954,4.576-5.748,7.783-7.666
		c2.137-1.279,4.363-2.82,6.961-1.447C753.477,190.522,753.604,193.301,753.734,196.703z"/>
	<path display="inline" fill-rule="evenodd" clip-rule="evenodd" fill="#FEFEFE" d="M209.158,228.389
		c-1.218-3.904-2.944-7.02-7.328-6.023c-4.431,1.01-5.183,4.725-5.113,8.576c0.03,1.627,0.449,3.293,0.944,4.859
		c1.454,4.611,0.231,6.342-5.747,7.852c-4.478,1.131-7.584-0.502-8.162-4.717c-0.356-2.6-0.453-5.406,0.131-7.936
		c2.919-12.613,8.031-24.225,16.684-34.053c2.436-2.768,5.264-5.137,8.645-6.631c5.836-2.578,9.8-0.19,10.49,6.146
		c0.555,5.093-0.707,9.942-2.295,14.665C215.402,217.088,212.927,222.87,209.158,228.389z"/>
	<path display="inline" fill-rule="evenodd" clip-rule="evenodd" fill="#FDFDFD" d="M672.734,216.086
		c5.871-10.48,11.846-19.57,20.705-26.342c1.854-1.418,4.045-3.604,6.641-1.734c2.566,1.848,1.367,4.611,0.568,6.875
		C696.148,207.62,686.424,213.686,672.734,216.086z"/>
	<path display="inline" fill-rule="evenodd" clip-rule="evenodd" fill="#FEFEFE" d="M618.211,187.999
		c-17.1-0.717-33.025-4.405-44.654-18.331c-9.41-11.268-9.441-13.593-0.016-24.657c13.414-15.748,29.313-27.56,50.527-30.311
		c8.885-1.152,17.631-0.218,25.971,3.177c19.826,8.07,26.096,30.782,13.297,49.066c-10.031,14.33-24.68,20.104-41.625,21.046
		C620.549,188.054,619.379,187.999,618.211,187.999z"/>
</g>
</svg>
