<?xml version="1.0" encoding="utf-8"?>
<!-- Generator: Adobe Illustrator 16.0.0, SVG Export Plug-In . SVG Version: 6.00 Build 0)  -->
<!DOCTYPE svg PUBLIC "-//W3C//DTD SVG 1.1//EN" "http://www.w3.org/Graphics/SVG/1.1/DTD/svg11.dtd">
<svg version="1.1" id="Layer_1" xmlns="http://www.w3.org/2000/svg" xmlns:xlink="http://www.w3.org/1999/xlink" x="0px" y="0px"
	 width="960px" height="560px" viewBox="0 0 960 560" enable-background="new 0 0 960 560" xml:space="preserve">
<g>
	<path fill-rule="evenodd" clip-rule="evenodd" d="M265.789,230.05c-3.498,4.647-6.777,9.464-11.34,13.216
		c-10.507,8.642-18.761,5.838-21.447-7.342c-0.131-0.645-0.23-1.297-0.441-2.498c-2.935,3.534-5.329,6.996-8.482,9.786
		c-5.944,5.258-13.765,5.952-20.076,1.213c-1.989-1.493-3.197-1.501-5.181-0.285c-6.207,3.807-13.051,6.296-19.632,1.863
		c-6.772-4.563-6.984-12.02-5.787-19.369c2.707-16.616,11.328-29.578,24.791-39.461c0.799-0.586,1.709-1.026,2.589-1.495
		c13.385-7.133,23.948-0.866,23.68,14.24c-0.25,14.059-7.099,25.345-15.664,35.848c-1.057,1.297-3.473,2.261-2.603,4.265
		c0.953,2.195,3.234,3.316,5.638,3.692c4.124,0.645,7.468-0.959,10.321-3.83c6.334-6.372,10.382-14.147,13.755-22.343
		c4.567-11.098,10.717-21.13,20.72-28.122c7.911-5.53,16.666-8.294,26.404-5.407c3.435,1.019,6.417,2.878,8.308,6
		c0.766,1.264,1.063,2.974-0.661,3.916c-1.504,0.822-2.334-0.075-3.109-1.43c-2.74-4.788-6.935-5.072-11.662-3.542
		c-2.568,0.831-4.908,2.12-6.944,3.825c-12.361,10.348-22.006,22.644-26.567,38.358c-1.077,3.709-2.782,8.437,1.421,10.923
		c4.295,2.541,7.862-0.993,10.916-3.786c5.968-5.458,10.037-12.367,14.093-19.251c2.784-4.725,5.385-9.56,8.236-14.244
		c4.041-6.638,5.901-7.378,13.491-5.958c1.074,0.201,2.17,0.283,3.594,0.462c-6.204,9.065-11.345,18.318-15.102,28.296
		c-1.358,3.606-2.269,7.347-2.294,11.187c-0.029,4.35,2.509,5.697,6.174,3.328c3.407-2.203,5.8-5.442,8.06-8.752
		c6.859-10.048,11.842-21.138,17.642-31.774c0.953-1.749,1.911-3.495,2.901-5.223c5.804-10.126,7.055-10.735,18.915-9.11
		c-6.553,7.483-11.641,15.771-15.863,24.608c-0.423,1.184-0.108,1.646,1.156,1.183c11.941-11.751,24.198-22.993,42.721-26.792
		c-7.123,13.01-13.273,24.925-18.497,37.291c-1.752,4.148-3.286,8.375-4.012,12.81c-0.381,2.331-1.294,5.095,1.493,6.768
		c2.877,1.727,5.213-0.021,7.202-1.712c5.267-4.475,9.103-10.095,12.217-16.232c4.879-9.617,9.578-19.333,14.726-28.804
		c5.569-10.246,7.031-10.767,18.855-9.108c-6.559,7.474-11.638,15.764-15.862,24.597c-0.423,1.184-0.108,1.646,1.156,1.183
		c11.942-11.752,24.199-22.994,42.712-26.791c-7.104,13.007-13.263,24.915-18.483,37.28c-1.751,4.148-3.287,8.374-4.015,12.807
		c-0.383,2.331-1.295,5.096,1.48,6.774c2.871,1.736,5.267,0.04,7.197-1.702c7.278-6.565,12.39-14.71,16.172-23.67
		c4.663-11.047,10.689-21.119,20.647-28.168c8.045-5.695,16.937-8.481,26.833-5.475c3.24,0.984,6.058,2.802,7.944,5.713
		c0.861,1.328,1.141,3.027-0.332,4.025c-1.628,1.104-2.548-0.035-3.444-1.538c-2.525-4.233-6.351-4.854-10.809-3.521
		c-5.983,1.79-10.373,5.831-14.519,10.188c-8.917,9.373-16.43,19.66-19.799,32.39c-0.951,3.59-2.581,8.121,1.247,10.595
		c4.273,2.762,7.886-0.697,10.947-3.464c6.506-5.88,10.782-13.449,15.178-20.896c2.616-4.435,5.061-8.975,7.779-13.345
		c3.872-6.225,5.607-6.871,12.77-5.477c1.133,0.221,2.299,0.267,3.866,0.44c-5.924,9.024-11.227,18.132-14.931,28.081
		c-1.289,3.462-2.047,7.009-2.415,10.658c-0.19,1.886-0.093,3.953,1.661,4.911c1.96,1.07,3.903-0.022,5.475-1.351
		c3.988-3.373,7.021-7.566,9.63-12.025c2.929-5.009,5.542-10.204,8.402-15.255c0.65-1.149,1.029-3.443,2.939-2.552
		c1.787,0.833,0.695,2.607,0.057,3.922c-4.357,8.98-8.885,17.883-15.368,25.561c-3.899,4.617-8.149,9.41-15.12,7.167
		c-7.355-2.367-7.615-8.831-7.673-15.163c0.697-2.527,0.644-2.698-0.979-3.106c-3.496,4.644-6.753,9.484-11.334,13.208
		c-4.142,3.367-8.656,6.195-14.099,4.265c-5.638-1.999-6.689-7.354-7.481-12.564c-0.124-0.814-0.127-1.647-0.217-2.885
		c-3.088,3.631-5.859,7.051-8.811,10.306c-2.144,2.363-4.76,4.139-7.864,5.105c-8.935,2.782-16.122-2.667-15.817-12.023
		c0.288-8.856,4.917-16.066,8.979-23.48c1.195-2.181,2.598-4.25,3.756-6.448c0.609-1.156,1.122-2.507-0.029-3.707
		c-1.22-1.271-2.46-0.443-3.657,0.072c-5.998,2.583-10.194,7.381-14.456,12.024c-7.579,8.258-13.787,17.531-18.623,27.603
		c-2.304,4.8-5.085,7.472-10.622,6.523c-1.418-0.243-2.939,0.109-4.447,0.19c0.285-1.053,0.538-1.991,0.859-3.178
		c-0.666,0.108-1.183,0.047-1.51,0.268c-2.846,1.922-5.911,2.88-9.395,2.695c-6.531-0.348-10.504-4.092-10.836-10.601
		c-0.232-4.556,0.759-8.897,2.591-13.089c2.536-5.8,5.689-11.251,8.965-16.648c1.088-1.792,2.96-3.893,1.021-5.801
		c-1.957-1.925-4.029,0.143-5.781,1.158c-4.961,2.874-8.728,7.118-12.56,11.29c-8.062,8.777-14.035,18.934-19.635,29.348
		c-1.766,3.284-10.006,6.245-13.226,4.556c-1.329-0.697,1.099-1.887-0.195-2.98c0.022,0.003-0.37-0.179-0.529-0.058
		c-3.854,2.952-7.903,5.261-12.816,2.654c-5.972-3.169-6.244-8.911-6.255-14.695C267.464,230.629,267.411,230.459,265.789,230.05z"
		/>
	<path fill-rule="evenodd" clip-rule="evenodd" d="M705.828,224.038c-3.371,6.115-6.611,12.304-11.893,17.111
		c-6.648,6.051-14.467,8.329-23.1,6.305c-7.928-1.859-12.457-7.271-12.754-17.137c-7.424,11.723-16.211,19.835-26.834,25.992
		c-19.479,11.291-39.865,14.119-61.379,6.708c-21.293-7.336-33.879-24.111-35.217-46.693c-1.402-23.681,5.322-45.052,18.59-64.403
		c2.445-3.57,2.736-6.564,1.986-10.508c-2.16-11.379-2.461-22.82,0.197-34.203c0.26-1.113,0.611-2.223,1.076-3.265
		c0.389-0.868,1.273-0.982,2.141-0.858c1.148,0.165,1.123,1.107,1.053,1.892c-0.234,2.652-0.641,5.291-0.838,7.945
		c-0.68,9.15,0.539,18.15,2.17,27.803c5.896-6.813,11.52-13.103,18.393-18.083c20.684-14.988,43.582-19.171,68.195-13.205
		c14.59,3.537,26.053,11.645,29.801,27.018c4.031,16.541-2.441,30.161-14.469,41.174c-11.377,10.417-25.223,14.91-40.605,15.442
		c-13.221,0.457-25.838-1.403-37.725-7.415c-10.158-5.137-17.441-13.106-22.865-23.686c-3.318,4.359-5.002,8.937-6.631,13.464
		c-5.902,16.396-10.449,33.109-7.752,50.748c3.074,20.104,12.717,30.211,32.674,33.47c24.08,3.933,46.014-1.472,64.582-17.777
		c7.195-6.317,12.322-14.357,15.49-23.466c4.629-13.306,12.191-24.323,24.359-31.81c3.883-2.39,8.055-3.864,12.75-3.623
		c6.916,0.356,10.688,5.09,8.904,11.827c-2.223,8.389-8.031,14.044-15.211,18.352c-5.164,3.098-10.803,5.157-16.791,6.011
		c-2.273,0.324-3.43,1.22-3.971,3.569c-1.201,5.238-2.23,10.377-0.559,15.736c1.432,4.585,4.443,6.323,9.055,5.857
		c3.385-0.342,6.533-1.347,9.229-3.413c1.975-1.513,4.039-3.053,5.57-4.975c8.771-11.012,15.561-23.125,18.773-36.923
		c1.029-4.424,1.674-9.204-1.104-13.605c2.924-1.373,6.264-1.628,9.488-2.323c3.836-0.826,5.559,0.742,5.586,4.656
		c0.053,7.154-1.305,14.081-3.211,21.164c2.359-0.02,2.596-2.012,3.369-3.228c4.119-6.482,8.484-12.755,14.221-17.943
		c4.477-4.048,9.48-6.468,15.451-3.595c5.564,2.677,7.178,7.825,6.572,13.425c-2.191,20.233-10.557,36.938-28.785,47.4
		c-6.814,3.911-14.396,4.235-21.736,1.659c-3.207-1.126-4.207-0.51-5.334,2.406c-4.598,11.919-9.367,23.773-14.174,35.61
		c-4.939,12.162-8.145,14.458-20.766,10.937c12.443-21.038,23.775-42.607,33.285-65.103c0.703-1.667,1.172-3.436,1.75-5.156
		c0.168-0.551,0.371-1.193,0.004-1.637C706.451,223.215,706.18,223.92,705.828,224.038z"/>
	<path fill-rule="evenodd" clip-rule="evenodd" d="M13.745,228.234c-7.515,4.311-13.721,9.909-18.605,16.959
		c-5.564,8.031-8.742,16.87-8.044,26.687c1.042,14.66,10.217,23.506,22.688,29.141c26.417,11.936,51.574,7.943,75.409-7.309
		c22.741-14.552,38.59-35.403,52.204-58.181c6.651-11.128,12.524-22.684,17.878-34.482c12.076-26.61,24.2-53.188,40.055-78.907
		c-11.523,1.857-21.895,4.773-31.983,8.741c-16.249,6.391-31.455,14.442-43.012,28.007c-7.145,8.387-11.228,17.945-10.69,29.229
		c0.596,12.507,8.94,18.355,20.713,14.345c11.203-3.815,18.418-13.792,18.32-25.276c-0.016-1.855-0.061-3.678-1.187-5.263
		c-0.773-1.088-1.933-2.322-0.05-3.232c1.261-0.61,2.663-0.111,3.538,1.107c1.089,1.517,1.494,3.293,1.717,5.122
		c2.522,20.63-20.476,39.477-40.291,33.014c-10.273-3.351-16.525-13.896-15.426-25.177c1.585-16.262,10.113-28.288,22.726-37.729
		c18.77-14.05,40.515-21.08,63.093-25.991c0.65-0.142,1.301-0.332,1.96-0.374c9.156-0.588,16.858-3.562,21.944-11.929
		c1.797-2.956,5.027-4.86,8.782-5.138c3.212-0.237,6.818-0.543,8.021,3.25c1.191,3.754,0.16,7.441-3.47,9.58
		c-3.855,2.271-7.897,4.294-12.468,4.771c-4.445,0.464-7.204,2.588-9.437,6.736c-10.056,18.676-16.57,38.726-23.416,58.647
		c-8.714,25.359-18.61,50.17-33.575,72.599c-20.414,30.596-48.846,49.726-84.974,56.036c-15.875,2.771-32.249,1.721-47.74-4.249
		c-23.328-8.988-32.361-27.576-25.405-51.592c3.638-12.561,11.447-21.574,22.591-27.962C8.707,227.641,9.964,227.462,13.745,228.234
		z"/>
	<path fill-rule="evenodd" clip-rule="evenodd" d="M831.141,183.203c-8.016,6.625-10.875,15.463-14.668,23.669
		c-4.092,8.854-9.049,17.438-10.164,27.411c-0.334,2.994-0.936,6.43,2.266,8.042c3.348,1.686,6.119-0.723,8.346-2.927
		c6.727-6.658,10.832-15.045,15.023-23.377c3.879-7.711,7.748-15.472,13.617-21.935c6.262-6.899,13.563-11.734,23.463-11.105
		c5.783,0.367,9.859,3.295,10.699,7.943c1.076,5.967-2.055,12.79-6.83,14.849c-1.438,0.62-3.156,0.981-4.283-0.055
		c-1.691-1.555,0.521-2.542,1.152-3.604c1.797-3.026,3.586-6.034,3.871-9.623c0.32-4.01-1.836-5.933-5.803-5.214
		c-2.33,0.422-4.463,1.473-6.242,2.988c-11.719,9.981-19.035,22.448-21.1,37.829c-0.066,0.494-0.17,0.986-0.195,1.482
		c-0.633,12.59,8.148,18.44,19.48,12.802c6.314-3.143,10.717-8.338,13.766-14.626c12.092-24.945,24.219-49.873,37.264-74.339
		c0.938-1.759,1.896-3.507,2.893-5.232c6.264-10.838,6.914-11.166,19.895-9.878c-16.158,23.934-28.867,49.543-41.666,75.349
		c12.629-11.879,25.635-22.859,43.268-26.087c-6.049,12.899-12.877,25.02-17.998,37.975c-1.596,4.038-2.975,8.121-3.438,12.446
		c-0.229,2.136-0.555,4.54,1.816,5.779c2.451,1.282,4.469-0.049,6.316-1.605c3.615-3.044,6.328-6.854,8.701-10.858
		c3.471-5.854,6.664-11.872,10.008-17.803c0.676-1.197,1.002-3.321,2.912-2.601c2.121,0.799,0.844,2.544,0.238,3.793
		c-4.127,8.526-8.102,17.149-14.195,24.536c-2.779,3.367-5.881,6.356-10.074,7.919c-9.58,3.571-17.793-2.822-16.523-12.917
		c0.67-5.327,2.291-10.373,5.037-15.025c2.365-4.005,4.795-7.977,7.033-12.052c0.904-1.645,2.645-3.642,0.637-5.39
		c-1.846-1.606-3.752,0.069-5.451,0.963c-2.975,1.564-5.445,3.818-7.809,6.165c-9.393,9.33-17.502,19.678-23.148,31.675
		c-2.555,5.428-5.498,8.872-11.973,7.486c-0.93-0.199-1.977,0.152-3.094,0.261c-0.723-1.505,1.098-2.431,0.916-3.946
		c-0.441,0.105-0.941,0.113-1.32,0.331c-6.234,3.589-13.061,3.814-19.896,3.116c-7.588-0.775-12.236-5.577-13.42-13.211
		c-0.277-1.791-0.365-3.61-0.584-5.854c-2.262,1.406-2.85,3.682-4.021,5.443c-3.063,4.596-6.211,9.131-11.104,11.946
		c-8.494,4.89-16.326,0.866-17.207-8.826c-0.268-2.937-0.041-5.918-0.041-9.64c-4.273,5.999-7.764,11.831-13.025,16.208
		c-3.322,2.764-6.879,4.565-11.359,4.12c-6.057-0.602-10.098-4.627-10.42-10.687c-0.088-1.651-0.182-3.428,0.307-4.962
		c5.002-15.676,9.947-31.385,18.361-45.693c1.363-2.317,3.275-3.686,6.07-3.662c3.615,0.031,7.23,0.008,11.086,0.008
		c-11.814,14.098-17.301,31.063-24.49,47.12c-1.33,2.97-1.857,6.427-1.16,9.808c0.725,3.515,2.734,4.821,6.168,3.287
		c2.793-1.247,4.947-3.275,6.902-5.597c10.734-12.75,17.275-27.905,24.443-42.682C816.666,182.007,814.289,182.686,831.141,183.203z
		"/>
	<path fill-rule="evenodd" clip-rule="evenodd" fill="#E3E3E3" d="M705.828,224.038c0.377-1.209,0.578-2.521,2.209-3.498
		c0.578,2.027-0.098,3.447-1.199,4.784C706.5,224.896,706.164,224.467,705.828,224.038z"/>
	<path fill-rule="evenodd" clip-rule="evenodd" fill="#CBCBCB" d="M265.789,230.05c0.151-0.823,0.508-1.709,1.376-1.675
		c0.916,0.036,0.56,1.026,0.473,1.542c-0.185,1.098-0.568,2.162-0.87,3.239C266.236,232.186,266.91,230.836,265.789,230.05z"/>
	<path fill-rule="evenodd" clip-rule="evenodd" fill="#CBCBCB" d="M450.789,230.05c0.151-0.823,0.509-1.709,1.376-1.675
		c0.916,0.036,0.56,1.026,0.473,1.542c-0.186,1.098-0.568,2.162-0.87,3.239C451.236,232.186,451.91,230.836,450.789,230.05z"/>
	<path fill-rule="evenodd" clip-rule="evenodd" fill="#D8D8D8" d="M315.738,213.037c-0.617,0.983-1.172,2.781-2.507,1.766
		c-0.762-0.579,0.355-2.161,1.352-2.949C314.968,212.249,315.353,212.643,315.738,213.037z"/>
	<path fill-rule="evenodd" clip-rule="evenodd" fill="#D8D8D8" d="M375.738,213.037c-0.617,0.983-1.172,2.781-2.507,1.766
		c-0.762-0.579,0.355-2.161,1.352-2.949C374.968,212.249,375.353,212.643,375.738,213.037z"/>
	<path fill-rule="evenodd" clip-rule="evenodd" fill="#FEFEFE" d="M209.158,228.222c-1.217-3.905-2.944-7.02-7.327-6.022
		c-4.431,1.008-5.183,4.724-5.113,8.575c0.03,1.628,0.449,3.292,0.944,4.86c1.454,4.611,0.231,6.34-5.747,7.851
		c-4.478,1.131-7.584-0.501-8.163-4.717c-0.356-2.6-0.454-5.406,0.131-7.935c2.918-12.615,8.031-24.225,16.683-34.054
		c2.436-2.767,5.264-5.136,8.646-6.63c5.835-2.579,9.799-0.191,10.489,6.145c0.555,5.092-0.707,9.943-2.295,14.666
		C215.403,216.921,212.928,222.703,209.158,228.222z"/>
	<path fill-rule="evenodd" clip-rule="evenodd" fill="#FEFEFE" d="M618.211,187.832c-17.1-0.716-33.025-4.405-44.654-18.331
		c-9.41-11.268-9.441-13.593-0.016-24.657c13.414-15.749,29.313-27.561,50.527-30.311c8.885-1.152,17.631-0.218,25.971,3.177
		c19.826,8.07,26.096,30.782,13.297,49.066c-10.031,14.33-24.68,20.104-41.625,21.046
		C620.549,187.888,619.379,187.832,618.211,187.832z"/>
	<path fill-rule="evenodd" clip-rule="evenodd" fill="#FEFEFE" d="M753.734,196.276c-0.375,1.786-0.604,4.324-1.447,6.637
		c-5.553,15.204-14.619,27.921-27.51,37.773c-3.197,2.443-6.834,4.222-11.104,3.49c-2.498-0.428-4.053-1.324-2.402-4.343
		c7.803-14.284,14.984-28.93,24.707-42.083c2.186-2.954,4.576-5.748,7.783-7.666c2.137-1.279,4.363-2.82,6.961-1.447
		C753.477,190.095,753.604,192.875,753.734,196.276z"/>
	<path fill-rule="evenodd" clip-rule="evenodd" fill="#FDFDFD" d="M672.734,215.92c5.871-10.481,11.846-19.571,20.705-26.343
		c1.854-1.417,4.045-3.603,6.641-1.734c2.566,1.849,1.367,4.612,0.568,6.875C696.148,207.453,686.424,213.519,672.734,215.92z"/>
	<path fill-rule="evenodd" clip-rule="evenodd" fill="#EFEFEF" d="M205.275,115.099c2.83-2.657,5.159-4.889,7.542-7.06
		c0.966-0.88,2.058-1.007,3.087-0.017c1.241,1.193,0.917,2.403-0.122,3.46C213.085,114.228,209.79,115.343,205.275,115.099z"/>
</g>
</svg>
